<?xml version="1.0" encoding="UTF-8" standalone="no"?>

<svg
   version="1.1"
   id="svg1404"
   width="206.70363"
   height="129.30908"
   viewBox="0 0 206.70363 129.30908"
   xmlns="http://www.w3.org/2000/svg"
   xmlnsSvg="http://www.w3.org/2000/svg">
  <defs
     id="defs1408" />
  <g
     id="g1410"
     transform="translate(0,-0.02424586)">
    <path
       style="fill:#d1ab75;fill-opacity:1;stroke-width:1.33333"
       d="m 121.33334,121.33333 c 0,-7.90129 -0.0468,-8 -3.7896,-8 h -3.78958 l -0.88102,-24.333332 c -0.51333,-14.177923 -1.43583,-24.51882 -2.21041,-24.777777 -1.80168,-0.602341 -1.74345,-20.222222 0.06,-20.222222 0.87765,0 1.24599,-3.806121 1,-10.333333 l -0.38941,-10.333333 -4.4277,-0.42485 c -2.48252,-0.238204 -5.85065,0.507499 -7.66667,1.697404 l -3.238968,2.122254 V 76.697402 126.66666 H 85.507791 75.015581 l -0.674156,-4.33333 c -0.789884,-5.07721 -0.02389,-78.993624 0.949938,-91.666664 l 0.665968,-8.666667 -22.311998,0.403347 c -12.2716,0.22184 -23.061999,0.653009 -23.978666,0.958153 C 28.438882,23.77021 28,28.842795 28,42.624819 V 61.333332 H 17.333334 6.6666668 V 41.999999 22.666666 H 3.3333334 C 0.05555556,22.666666 0,22.488889 0,12 0,1.8845225 0.15502196,1.3233294 3,1.1397364 13.574787,0.45732108 66.666668,0.65918241 66.666668,1.3818042 c 0,1.2148411 24.063656,0.5476079 27.176622,-0.75354884 1.457557,-0.60923005 3.546416,-0.40182861 4.981908,0.49465044 3.032952,1.8941083 11.380772,2.0345457 12.508142,0.2104275 0.99546,-1.61069525 7.33333,-1.79616446 7.33333,-0.2146001 0,0.6153032 7.95,0.9670617 17.66667,0.7816856 9.71666,-0.1853763 18.3495,0.2289278 19.1841,0.9206758 0.96574,0.8004461 2.81952,0.6644502 5.09879,-0.3740515 2.78361,-1.2682966 4.14932,-1.277075 6.13113,-0.039409 1.40239,0.8758014 3.82158,1.5923661 5.37599,1.5923661 1.55441,0 4.00609,1.5 5.4482,3.3333332 2.44931,3.1137806 3.41124,3.3333326 14.60465,3.3333326 h 11.98264 l -0.68965,35.396833 c -0.58879,30.219462 -0.40539,35.50592 1.25391,36.14265 2.21842,0.85129 2.78197,11.127182 0.61024,11.127182 -0.81982,0 -1.33334,6.608146 -1.33334,17.157779 v 17.15777 l -5.60662,0.75201 c -3.08366,0.4136 -6.08366,0.45719 -6.66667,0.0969 -0.58303,-0.36032 -1.06004,-24.31972 -1.06004,-53.243108 V 22.666666 H 179.33334 168 v 17.333333 17.333333 h 3.33334 3.33333 v 21.24477 21.244769 L 171,100.24477 c -3.05526,0.35155 -3.73633,1.14445 -4.08448,4.75523 -0.38921,4.03677 -0.13828,4.33333 3.66667,4.33333 h 4.08448 v 10 10 H 148 121.33334 Z"
       id="path1414" />
    <text
       xmlSpace="preserve"
       style="font-weight:300;font-size:26.6667px;font-family:Arial;-inkscape-font-specification:'Arial Bold';text-align:center;text-anchor:middle;fill:#ffffff;fill-opacity:1"
       x="143.12947"
       y="85.741051"
       id="text4028"><tspan
         id="tspan4026"
         x="143.12947"
         y="85.741051"
         style="font-size:26.6667px">CSB</tspan></text>
  </g>
</svg>
