<?xml version="1.0" encoding="UTF-8" standalone="no"?>

<svg
   version="1.1"
   id="svg2"
   width="286.57086"
   height="310.15982"
   viewBox="0 0 286.57087 310.15982"
   xmlns="http://www.w3.org/2000/svg"
   xmlnsSvg="http://www.w3.org/2000/svg">
  <defs
     id="defs6" />
  <g
     id="g8"
     transform="translate(-0.09579009,-0.50687652)">
    <path
       style="fill:#4bb857;fill-opacity:1;stroke-width:1.33333"
       d="m 144,303.99999 c 0,-6.51852 -0.0889,-6.66666 -4,-6.66666 -2.2,0 -4,0.6 -4,1.33333 0,0.82963 -7.55556,1.33333 -20,1.33333 H 95.999998 v -42.58797 c 0,-43.97536 -0.0766,-44.61749 -5.333333,-44.71012 -1.318099,-0.0232 -2.011064,-1.39904 -2.03245,-4.03524 -0.01785,-2.2 -0.705538,-5.2 -1.528204,-6.66666 -1.142528,-2.03694 -0.901508,-6.13023 1.020618,-17.33334 1.384002,-8.06666 2.521693,-16.61666 2.528202,-19 0.01133,-4.16038 -0.198613,-4.33333 -5.261082,-4.33333 -4.943418,0 -5.326184,0.28395 -6.125364,4.54395 -1.024252,5.45973 -2.742465,6.0795 -16.923754,6.10452 -8.889463,0.0157 -10.553167,-0.35191 -11.987396,-2.64847 -1.270552,-2.03448 -3.109369,-2.66667 -7.756403,-2.66667 -7.289758,0 -19.404113,-6.57626 -26.440144,-14.353 C 9.9391288,145.43714 4.2618572,132.88396 1.6408285,120.20837 -0.24454677,111.09049 -0.33781013,107.74039 0.99891363,97.150231 1.9629793,89.512447 2.0830177,84.463329 1.3118646,83.98673 -0.47887754,82.87999 1.3599345,69.497207 3.6122096,67.244932 4.6479267,66.209215 6.6980032,61.021824 8.1679353,55.717395 12.357516,40.598787 20.612114,25.94249 30.606147,15.877648 37.907623,8.5244405 40.749156,6.6332645 47.999999,4.3012098 52.766665,2.768129 59.666665,1.1488919 63.333332,0.70290504 71.723036,-0.3175579 89.814386,2.8010949 96.758695,6.4648907 c 8.864985,4.6771363 8.553005,4.0547243 6.636245,13.2398553 -0.95685,4.585245 -1.23835,8.646675 -0.62557,9.025399 0.61279,0.378722 0.77617,1.569373 0.36308,2.645888 -0.55749,1.452797 0.27993,1.9573 3.24891,1.9573 2.32557,0 4.32127,-0.837216 4.76747,-2 0.99449,-2.591592 6.04118,-2.591592 7.03567,0 0.47353,1.234018 2.50012,2 5.29148,2 H 128 V 21.463201 9.5930698 l 9.66666,-2.9775177 c 13.30386,-4.0978424 32.2292,-4.9561173 43.66667,-1.9803082 22.63069,5.8880731 38.373,21.9018291 44.70252,45.4733621 2.7047,10.072505 4.43124,49.891392 2.16328,49.891392 -0.84286,0 -1.53247,1.500002 -1.53247,3.333332 0,1.83333 0.45,3.33289 1,3.33234 0.55,-5.4e-4 0.84355,17.84946 0.65232,39.66667 L 227.97131,186 l 29.34767,22.47244 29.34768,22.47244 v 7.86089 7.86089 l -20.33333,0.0147 c -11.18334,0.008 -22.58334,0.38657 -25.33334,0.84112 l -5,0.82644 v -6.84112 -6.84112 h -48.66666 -48.66667 v 13.50301 13.503 l 7.66667,10.45304 c 6.71759,9.15904 8.18544,10.45849 11.85735,10.497 5.31925,0.0557 5.80932,1.41841 5.80932,16.153 v 11.89095 h -10 -10 v -6.66667 z"
       id="path170" />
    <text
       xmlSpace="preserve"
       style="font-weight:300;font-size:37.3333px;font-family:Arial;-inkscape-font-specification:'Arial Bold';fill:#ffffff;fill-opacity:1"
       x="120.62461"
       y="84.693199"
       id="text1295"><tspan
         id="tspan1293"
         x="120.62461"
         y="84.693199"
         style="font-size:37.3333px;text-align:center;text-anchor:middle">Hope</tspan><tspan
         x="120.62461"
         y="131.35983"
         id="tspan1297"
         style="font-size:37.3333px;text-align:center;text-anchor:middle">Building</tspan></text>
  </g>
</svg>
