<?xml version="1.0" encoding="UTF-8" standalone="no"?>

<svg
   version="1.1"
   id="svg787"
   width="203.95013"
   height="189.28189"
   viewBox="0 0 203.95013 189.28189"
   xmlns="http://www.w3.org/2000/svg"
   xmlnsSvg="http://www.w3.org/2000/svg">
  <defs
     id="defs791" />
  <g
     id="g793"
     transform="translate(0,0.00138272)">
    <path
       style="fill:#007dbe;fill-opacity:1;stroke-width:0.228388"
       d="m 90.711861,189.16209 -9.892879,-0.062 -5.031763,-3.45178 -5.031765,-3.45178 1.392678,-1.40516 1.392678,-1.40517 V 168.25845 157.1307 h -8.678729 c -8.114415,0 -8.678521,-0.026 -8.675536,-0.39968 0.0091,-1.13731 -0.749038,-18.68213 -0.810132,-18.74836 -0.0717,-0.0778 -4.408543,-0.94788 -4.731461,-0.94931 -0.09421,-4.2e-4 -0.17129,1.23253 -0.17129,2.73989 v 2.74065 H 25.236831 0 v -15.18778 -15.18777 h 7.8465763 7.8465757 l 0.135484,1.54161 c 0.07452,0.84789 0.261013,3.9722 0.414438,6.9429 l 0.278954,5.40129 3.900626,0.14023 c 5.319569,0.19125 23.113127,0.59077 26.31135,0.59077 h 2.59772 v 4.80049 4.80049 l 0.513872,-0.11183 c 0.282629,-0.0615 1.638272,-0.27146 3.01254,-0.46656 1.374265,-0.1951 2.518341,-0.37798 2.542388,-0.40639 0.08432,-0.0996 0.814848,-27.1597 0.735358,-27.23919 -0.0442,-0.0442 -1.978616,-0.25608 -4.29871,-0.47086 -2.320096,-0.21477 -4.258807,-0.42345 -4.308251,-0.46372 -0.04944,-0.0403 -0.263246,-4.98308 -0.475122,-10.984003 L 46.668571,85.302772 50.7408,78.169921 54.813026,71.037068 V 62.810854 54.584639 H 42.822677 30.832327 V 37.341374 20.09811 h 7.308404 7.308403 V 16.587402 13.076693 L 49.003083,7.6231879 C 50.957754,4.6237597 52.628184,2.0973935 52.715151,2.0090405 52.802119,1.9206874 64.280887,1.4321978 78.223526,0.92350795 L 103.57378,-0.00138272 143.02774,-6.9135898e-4 182.4817,0 v 25.921994 25.921993 l -1.54162,0.0049 c -0.84789,0.0027 -10.07189,0.154495 -20.49778,0.337358 -10.4259,0.182861 -20.061,0.334825 -21.41134,0.337699 l -2.45517,0.0052 V 70.685965 88.84278 l 3.48291,-0.0014 c 5.60294,-0.0021 42.39917,0.442147 49.44592,0.596895 l 6.45195,0.141687 v 10.593948 10.59395 h 3.99678 3.99679 v 5.93808 5.93808 h -19.41295 -19.41295 v 3.73371 3.73372 l -3.068,6.48663 -3.068,6.48673 -3.89656,3.67465 -3.89657,3.67466 -3.78227,1.40697 -3.78228,1.40697 h -3.1848 -3.18481 v 16.21711 16.21711 l -1.54161,-0.1246 c -1.53696,-0.12422 -33.10461,-1.70568 -34.04736,-1.70568 -0.48186,0 -0.49627,0.0795 -0.49627,2.74065 0,2.06938 -0.0699,2.72727 -0.28548,2.68604 -0.15702,-0.03 -4.737283,-0.0825 -10.178369,-0.11663 z"
       id="path870" />
    <text
       xmlSpace="preserve"
       style="font-weight:300;font-size:24px;font-family:Arial;-inkscape-font-specification:'Arial Bold';text-align:center;text-anchor:middle;fill:#007dbe;fill-opacity:1"
       x="105.28669"
       y="111.22477"
       id="text1742"><tspan
         id="tspan1740"
         x="105.28669"
         y="111.22477"
         style="font-size:24px;fill:#ffffff">Irving</tspan><tspan
         x="105.28669"
         y="141.22476"
         id="tspan1744"
         style="font-size:24px;fill:#ffffff">Building</tspan></text>
  </g>
</svg>
