<?xml version="1.0" encoding="UTF-8" standalone="no"?>

<svg
   version="1.1"
   id="svg4095"
   width="201.52902"
   height="198.73921"
   viewBox="0 0 201.52902 198.73921"
   xmlns="http://www.w3.org/2000/svg"
   xmlnsSvg="http://www.w3.org/2000/svg">
  <defs
     id="defs4099" />
  <g
     id="g4101"
     transform="translate(0.19569328,0.07254247)">
    <path
       style="fill:#000000;stroke-width:1.33333"
       d="M 46.666666,197.33334 V 196 h -8.666667 -8.666666 v -9.33333 -9.33333 H 24.077576 18.821818 L 19.604292,168 l 0.782473,-9.33333 h -4.860049 -4.86005 V 148 137.33334 H 12 c 0.733333,0 1.333333,-0.9 1.333333,-2 v -2 H 20.666666 28 V 128.66667 124 h 7.958961 7.958961 l 0.374372,16.33334 0.374372,16.33333 4.219073,0.40929 4.219075,0.40928 0.862072,-9.07594 c 0.47414,-4.99178 1.17323,-10.72596 1.553533,-12.74263 L 56.21188,132 h -2.105941 -2.10594 v -8 -8 h 4 4 v -4.4 -4.4 l -1.62552,-1.62552 -1.62552,-1.62552 3.526052,-3.26954 3.526051,-3.269538 18.432802,-0.371607 18.432796,-0.371607 v -2.666666 -2.666667 l -26.333328,-0.36152 -26.333333,-0.36152 v 1.149612 c 0,0.632287 0.893506,4.094971 1.985568,7.694853 2.617393,8.628 2.542835,9.42938 -0.962572,10.34606 l -2.977005,0.77851 -1.135432,-1.13544 c -0.624489,-0.62449 -2.250879,-0.84373 -3.614201,-0.48722 l -2.478768,0.64821 -0.408795,3.41715 -0.408795,3.41715 -15.960601,3.08648 -15.9605997,3.08647 -0.8880855,-0.97273 C 4.7022659,121.1044 3.5994498,116.46667 2.7400104,111.33334 1.880571,106.2 0.86844883,100.73373 0.49085002,99.186059 l -0.6865433,-2.813943 5.76451318,-0.888468 c 3.1704824,-0.488657 7.6379081,-1.224786 9.9276121,-1.635842 l 4.163098,-0.747375 0.909832,4.849821 0.909832,4.849818 2.260403,-0.66227 c 1.243221,-0.36426 4.510403,-1.06105 7.260402,-1.54843 l 5,-0.886144 v -3.851612 -3.851612 h -4 H 28 V 88.480131 84.96026 l -7.333334,0.756867 -7.333333,0.756866 -0.06978,-14.236996 C 13.225171,64.406649 12.886439,45.550001 12.510813,30.333334 L 11.827856,2.6666667 14.913928,2.4601364 C 16.611268,2.3465448 24.816965,2.13966 33.14881,2.0003924 L 48.297622,1.7471786 47.415935,9.5402562 46.534249,17.333334 h 16.518463 c 9.085155,0 28.314949,-0.395076 42.732878,-0.877947 L 132,15.577439 V 8.6550431 1.7326472 L 144.20482,0.86632363 C 150.91749,0.38984563 162.61749,0 170.20482,0 H 184 v 6.6666668 6.6666672 h 4.66666 4.66667 v 9.924394 9.924395 l -2.96335,2.075606 -2.96333,2.075605 H 177.70332 168 v 22.666667 22.666667 h -2 -2 V 94.000002 105.33334 H 152.66666 141.33333 V 104 102.66667 H 128.66666 116 v 2 2 h 3.33333 3.33333 v 3.37518 3.37518 L 125,114.11 c 1.28333,0.38114 4.03196,1.56231 6.10805,2.62482 l 3.77472,1.93185 H 151.44138 168 V 121.33334 124 h 3.33333 3.33333 v -2.66666 -2.66667 h 2 2 V 126 v 7.33334 h 4 4 v -4 -4 H 194 h 7.33333 v 18 18 H 198.66666 196 l -0.22414,10.33333 -0.22414,10.33333 -0.54188,-5.31642 c -0.29803,-2.92404 -1.17064,-6.07404 -1.93912,-7 L 191.67348,168 H 181.43674 171.2 l -1.6,1.6 -1.6,1.6 v 12.4 12.4 h -2 -2 v -6.44444 c 0,-7.9395 0.31868,-7.65292 -7.88824,-7.09354 l -6.77843,0.46202 V 187.46202 192 h -5.93959 -5.93957 l -0.87548,-4.66666 -0.87547,-4.66667 h -2.51828 -2.51828 V 186 v 3.33334 h -10.04184 -10.04185 l -0.76747,2 c -0.42211,1.1 -1.56706,2 -2.54433,2 h -1.77686 l -0.41383,-5 -0.41382,-5 -10.333328,-0.38942 -10.333333,-0.38942 v 8.05609 8.05608 H 65.333332 46.666666 Z"
       id="path4107" />
    <path
       style="fill:#6f5896;fill-opacity:1;stroke-width:0.239646"
       d="m 46.731002,197.22879 v -1.43787 H 38.10374 29.476478 v -9.22638 -9.22638 h -5.278889 -5.27889 l 0.146516,-1.49779 c 0.08058,-0.82378 0.438276,-5.02957 0.794871,-9.3462 l 0.648355,-7.84841 H 15.646259 10.784077 V 148.10133 137.5569 h 0.729832 c 0.455355,0 0.951052,-0.22122 1.318054,-0.58822 0.494799,-0.4948 0.588222,-0.81832 0.588222,-2.037 v -1.44877 h 7.309208 7.309208 v -4.6731 -4.6731 h 7.908324 7.908323 l 0.0043,1.85726 c 0.0099,4.28863 0.712051,30.57224 0.819633,30.67983 0.119596,0.11959 8.345565,0.98053 8.471619,0.88664 0.03803,-0.0283 0.283288,-2.30301 0.545015,-5.05486 0.782364,-8.22595 1.401595,-13.43257 2.028461,-17.05572 0.325938,-1.88381 0.592607,-3.47446 0.592607,-3.53478 0,-0.0603 -0.970567,-0.10969 -2.156815,-0.10969 h -2.156816 v -7.7885 -7.7885 h 4.073985 4.073985 v -4.48735 -4.48735 l -1.617612,-1.64278 -1.617612,-1.64277 1.227449,-1.11917 c 0.675098,-0.61555 2.248693,-2.0604 3.496881,-3.210797 l 2.26943,-2.091625 11.361184,-0.23769 c 6.248649,-0.130732 14.569444,-0.309975 18.490655,-0.398321 l 7.129473,-0.16063 V 94.049912 91.349919 L 98.674309,91.216156 C 96.630949,91.092853 57.175664,90.570324 50.745076,90.5814 l -2.815843,0.0049 v 0.933625 c 0,1.008034 0.731158,3.9243 2.499718,9.970275 0.655305,2.24021 1.140987,4.40445 1.168208,5.20562 0.06328,1.86243 -0.456135,2.35768 -3.308457,3.15454 l -2.156815,0.60255 -0.749572,-0.72556 c -1.228925,-1.18956 -2.674272,-1.30128 -5.832578,-0.45083 l -0.874268,0.23541 -0.387223,3.37973 c -0.212973,1.85885 -0.422493,3.4045 -0.465599,3.43476 -0.04311,0.0303 -7.18371,1.42586 -15.868006,3.1013 C 3.9557767,122.90016 5.626476,122.82486 4.8157731,120.20011 4.1663876,118.09765 3.5322771,115.03577 2.2809838,107.9606 1.674906,104.53366 0.91526167,100.55102 0.59288538,99.110288 0.27050907,97.669556 0.03218887,96.473533 0.06328487,96.452456 0.09438088,96.431381 1.0903901,96.277998 2.2766386,96.111605 4.6875698,95.773428 18.296242,93.538423 19.066411,93.354154 c 0.464812,-0.11121 0.545111,0.15774 1.366387,4.57649 0.479905,2.582046 0.925749,4.747836 0.990765,4.812856 0.06501,0.065 1.391275,-0.20695 2.947244,-0.60436 1.555968,-0.39741 4.851047,-1.08318 7.322398,-1.52394 l 4.493366,-0.801381 v -4.014667 -4.01467 h -4.073985 -4.073985 v -3.47487 c 0,-1.911178 -0.02696,-3.474347 -0.05991,-3.473709 -0.03295,7.19e-4 -3.125372,0.324159 -6.872044,0.718938 -3.746672,0.394779 -6.991164,0.717779 -7.209981,0.717779 -0.365138,0 -0.410933,-1.315212 -0.556995,-15.996382 C 13.180636,54.29111 13.04047,47.128094 12.323866,18.364794 12.114141,9.9467737 12.033604,2.9682464 12.144894,2.8569561 12.371961,2.629889 24.004252,2.2582117 38.542782,2.0134854 L 48.208201,1.8507879 48.062055,2.9024748 C 47.761701,5.0638227 46.495665,16.437926 46.493554,16.993918 l -0.0022,0.578155 17.793728,-0.161033 c 18.758112,-0.169762 23.56852,-0.278806 50.804988,-1.15166 l 16.95497,-0.543361 V 8.8274535 1.9388875 l 0.77885,-0.1231377 c 1.23323,-0.1949758 15.35022,-1.08197078 21.14877,-1.32881403 2.89972,-0.12344042 10.79906,-0.29982139 17.55408,-0.39195769 l 12.28187,-0.16752055 V 6.6738215 13.420185 h 4.6731 4.6731 l -0.008,9.885405 -0.008,9.885404 -2.8485,1.977081 -2.84851,1.977081 h -9.72478 -9.72477 v 22.646562 22.646563 h -2.03699 -2.037 v 11.383193 11.383196 h -11.26337 -11.26337 v -1.31806 -1.31805 h -12.70124 -12.70125 v 2.15681 2.15682 h 3.23522 3.23523 v 3.32347 3.32346 l 1.49779,0.4169 c 2.0082,0.55896 3.74116,1.29699 7.66947,3.26624 l 3.29594,1.65224 h 16.53478 16.53479 v 2.63611 2.6361 h 3.35504 3.35505 v -2.6361 -2.63611 h 1.91717 1.91717 v 7.30921 7.3092 h 4.07398 4.07399 v -4.07398 -4.07399 h 7.30921 7.30921 v 17.97347 17.97346 h -2.75594 -2.75593 l -0.0325,4.37354 c -0.0179,2.40545 -0.0987,6.53036 -0.17973,9.16647 -0.13698,4.45796 -0.16079,4.65056 -0.34068,2.75593 -0.21374,-2.25128 -0.91441,-5.50338 -1.47455,-6.84397 -0.19923,-0.47684 -0.69636,-1.28883 -1.10472,-1.80443 l -0.74246,-0.93745 H 181.445 170.97369 l -1.49086,1.50424 -1.49087,1.50423 v 12.39525 12.39524 h -1.89571 -1.89571 l -0.0814,-5.97397 c -0.11308,-8.30232 0.24984,-7.96069 -7.94332,-7.47745 -2.79342,0.16476 -5.48335,0.36081 -5.97762,0.43567 l -0.89867,0.13611 v 4.52265 4.52265 h -5.85434 -5.85434 l -0.25063,-1.25814 c -0.13784,-0.69198 -0.53657,-2.79488 -0.88606,-4.6731 l -0.63544,-3.41496 h -2.6058 -2.60579 v 3.35244 3.35245 l -10.10283,0.0625 -10.10282,0.0625 -0.3817,1.06597 c -0.20993,0.58628 -0.73577,1.42205 -1.16853,1.85726 -0.67672,0.68055 -0.95115,0.79129 -1.96093,0.79129 -0.91394,0 -1.19996,-0.0929 -1.29084,-0.41938 -0.0642,-0.23066 -0.24919,-2.25267 -0.41105,-4.49337 -0.16187,-2.24069 -0.37571,-4.29606 -0.47521,-4.56748 -0.17554,-0.47888 -0.44626,-0.50214 -9.131036,-0.78453 -4.922569,-0.16006 -9.570209,-0.35297 -10.32809,-0.4287 l -1.377966,-0.13768 v 8.1715 8.1715 H 65.30358 46.731002 Z"
       id="path4180" />
    <text
       xmlSpace="preserve"
       style="font-weight:300;font-size:29.3333px;font-family:Arial;-inkscape-font-specification:'Arial Bold';text-align:center;text-anchor:middle;fill:#ffffff;fill-opacity:1"
       x="94.660233"
       y="42.657017"
       id="text5787"><tspan
         id="tspan5785"
         x="94.660233"
         y="42.657017"
         style="font-size:29.3333px">Ladywell</tspan><tspan
         x="94.660233"
         y="79.323639"
         id="tspan5789"
         style="font-size:29.3333px">Building</tspan></text>
  </g>
</svg>
