<?xml version="1.0" encoding="UTF-8" standalone="no"?><svg xmlns="http://www.w3.org/2000/svg" viewBox="0 0 202 199"><path fill="#000000" d="M47 197v-1H29v-19H19l1-9v-9h-9v-22h1l1-2v-2h15v-9h16v16l1 17h8l1-9 2-12v-4h-4v-16h8v-9l-2-1-1-2 3-3 4-4h37v-6H48v1l2 7c3 9 3 10-1 11l-3 1-1-2h-4l-2 1-1 3v3l-16 4-16 3-1-1-2-11-3-12v-3l6-1 9-1 5-1 1 5v5l3-1 7-1 5-1v-8h-8v-7l-7 1h-8V30L12 3l3-1h33l-1 8v7h16l43-1h26V2l12-1 26-1h14v13h9v20l-3 2-3 2h-19v46h-4v22h-23v-2h-25v4h7v6l2 1 6 3 4 2h33v5h7v-5h4v14h8v-8h14v36h-5v21l-1-5-2-7-1-2h-21l-1 2-2 1v25h-4v-6c0-8 0-8-8-8l-7 1v9h-12v-5l-1-4h-5v6h-20l-1 2-3 2h-2v-10H84v16H47Z"/><path fill="#6f5896" d="M47 197v-1H29v-19H19v-1l1-10 1-7H11v-21h1l1-1v-4h15v-9h16v2l1 31 8 1 1-5a243 243 0 0 1 2-21h-4v-16h8v-9l-1-1-2-2 1-1 4-3 2-2 11-1h26v-6H48v1l2 9 2 6c0 2-1 2-4 3h-3c-1-1-2-2-5-1l-1 1-1 3v3l-16 3c-18 4-16 4-17 1l-3-12a281 281 0 0 0-2-12h2l17-3 1 5 1 5 3-1 8-1 4-1v-8h-8v-7a2414 2414 0 0 0-14 1l-1-16a2823 2823 0 0 0-1-67l27-1h9v1l-2 14v1l18-1 51-1h17V2h1a622 622 0 0 1 39-2h12v13h9v20l-3 2-3 2h-19v45h-4v23h-23v-2h-25v4h6v7h2l8 3 3 2h33v5h7v-5h4v14h8v-8h14v36h-5v5a478 478 0 0 1-2 5l-1-2-1-1h-21l-2 1-1 2v25h-4v-6c0-8 0-8-8-8l-6 1h-1v9h-11l-1-1-1-5v-3h-5v6h-21v2l-1 1-2 1h-1l-1-5v-4l-9-1-11-1h-1v17H47Z"/><text x="95" y="43" fill="#ffffff" font-family="Arial" font-size="29" font-weight="300" style="-inkscape-font-specification:'Arial Bold';text-align:center" text-anchor="middle"><tspan x="95" y="43">Ladywell</tspan><tspan x="95" y="79">Building</tspan></text></svg>