<?xml version="1.0" encoding="UTF-8" standalone="no"?>

<svg
   version="1.1"
   id="svg1826"
   width="194.66667"
   height="124.82918"
   viewBox="0 0 194.66667 124.82918"
   xmlns="http://www.w3.org/2000/svg"
   xmlnsSvg="http://www.w3.org/2000/svg">
  <defs
     id="defs1830" />
  <g
     id="g1832">
    <path
       style="fill:#6d2150;fill-opacity:1;stroke-width:0.160882"
       d="m 169.16695,122.17553 c -4.6897,-1.45121 -16.43578,-5.07595 -26.1024,-8.05498 l -17.57568,-5.41643 -0.0409,-19.722306 -0.0409,-19.722308 -55.303036,-0.04045 -55.303032,-0.04045 V 55.906106 42.63361 H 7.4005512 0 v -5.857734 -5.857734 l 1.3272728,-0.09882 c 0.73,-0.05435 3.8946529,-0.245174 7.0325621,-0.424047 3.1379091,-0.178873 5.7149981,-0.339992 5.7268651,-0.358042 0.01187,-0.01805 0.190185,-3.453563 0.396263,-7.634473 l 0.374688,-7.601653 h 73.29655 73.296549 l 1.32761,-3.499173 1.32762,-3.499174 -0.003,-3.9013775 L 164.09918,0 h 2.5741 2.57411 v 4.6655649 4.6655648 h 12.70964 12.70964 V 33.858276 58.385421 l -0.52286,0.08064 c -0.28758,0.04435 -3.74452,0.238377 -7.6821,0.431166 -3.93757,0.192791 -7.16988,0.358876 -7.18291,0.369077 -0.013,0.0102 -0.28423,13.013755 -0.60266,28.896786 -0.66119,32.97888 -0.75071,36.68674 -0.88523,36.666 -0.0535,-0.008 -3.93427,-1.20235 -8.62396,-2.65356 z"
       id="path1909" />
    <text
       xmlSpace="preserve"
       style="font-weight:300;font-size:21.3333px;font-family:Arial;-inkscape-font-specification:'Arial Bold';text-align:center;text-anchor:middle;fill:#ffffff;fill-opacity:1"
       x="105.05565"
       y="36.037468"
       id="text2531"><tspan
         id="tspan2529"
         x="105.05565"
         y="36.037468"
         style="font-size:21.3333px">Mayo</tspan><tspan
         x="105.05565"
         y="62.704094"
         id="tspan2533"
         style="font-size:21.3333px">Building</tspan></text>
  </g>
</svg>
