<?xml version="1.0" encoding="UTF-8" standalone="no"?>

<svg
   version="1.1"
   id="svg2565"
   width="142.6667"
   height="73.223022"
   viewBox="0 0 142.6667 73.223023"
   xmlns="http://www.w3.org/2000/svg"
   xmlnsSvg="http://www.w3.org/2000/svg">
  <defs
     id="defs2569" />
  <g
     id="g2571">
    <path
       style="fill:#db6d9d;fill-opacity:1;stroke-width:0.117906"
       d="m 97.390637,71.922868 v -1.29697 h -2.644663 -2.644663 l -0.750562,1.20854 -0.750563,1.20854 -29.913315,0.0297 -29.913316,0.02971 V 70.50822 67.914052 h -7.369146 -7.369147 v -4.6573 -4.657301 H 8.0176311 0 v -9.196694 c 0,-5.058182 0.01326446,-9.198204 0.02947659,-9.200048 0.01621212,-0.0018 3.47188651,-0.185618 7.67927641,-0.408385 4.20739,-0.222768 7.660842,-0.420226 7.674337,-0.438796 0.0135,-0.01857 0.206885,-1.652028 0.429753,-3.629907 l 0.405213,-3.596143 6.570312,-0.03047 6.570311,-0.03047 V 28.65025 25.231957 h -4.657301 -4.6573 v -3.949863 -3.949862 h 4.6573 4.657301 V 8.666116 0 h 17.273279 17.273278 v 2.8930385 2.8930384 l 1.503306,-0.0698 C 66.23536,5.6778866 79.539617,5.2539167 94.973557,4.7741212 110.4075,4.2943259 123.52546,3.8802185 124.12459,3.8538827 l 1.08933,-0.047883 0.0308,4.788185 0.0308,4.7881853 8.69559,0.03024 8.69559,0.03024 v 9.903372 9.903372 h -3.21823 -3.21823 l -0.40259,-2.89221 c -0.22143,-1.590715 -0.43129,-2.937113 -0.46635,-2.991993 -0.0351,-0.05488 -1.84118,-0.266586 -4.01361,-0.470456 -2.17242,-0.203869 -4.1223,-0.398554 -4.33305,-0.432632 l -0.3832,-0.06196 v 23.411342 23.41134 l -3.91056,-0.03107 -3.91057,-0.03107 -0.77621,-1.263354 -0.77621,-1.263354 -2.68237,-0.0041 -2.68237,-0.0041 v 1.29697 1.296969 h -7.25124 -7.251243 z"
       id="path2648" />
    <text
       xmlSpace="preserve"
       style="font-weight:300;font-size:18.6667px;font-family:Arial;-inkscape-font-specification:'Arial Bold';text-align:center;text-anchor:middle;fill:#db6d9d;fill-opacity:1"
       x="74.045181"
       y="31.598898"
       id="text3529"><tspan
         id="tspan3527"
         x="74.045181"
         y="31.598898"
         style="font-size:18.6667px;fill:#ffffff">Barnes</tspan><tspan
         x="74.045181"
         y="54.932274"
         id="tspan3531"
         style="font-size:18.6667px;fill:#ffffff">Building</tspan></text>
  </g>
</svg>
