<?xml version="1.0" encoding="UTF-8" standalone="no"?><svg xmlns="http://www.w3.org/2000/svg" viewBox="0 0 143 73"><path fill="#db6d9d" d="M97 72v-1h-5l-1 1v1H31v-5H16v-9H0V40a8557 8557 0 0 1 15-1l1-3v-4h13v-7h-9v-8h9V0h35v6h1a10453 10453 0 0 1 59-2h1v9h18v20h-7v-3l-1-3h-4l-4-1v47h-8l-1-1-1-1h-5v2H97z"/><text x="74" y="32" fill="#db6d9d" font-family="Arial" font-size="19" font-weight="300" style="-inkscape-font-specification:'Arial Bold';text-align:center" text-anchor="middle"><tspan x="74" y="32" fill="#ffffff">Barnes</tspan><tspan x="74" y="55" fill="#ffffff">Building</tspan></text></svg>