<?xml version="1.0" encoding="UTF-8" standalone="no"?>

<svg
   version="1.1"
   id="svg10"
   width="204"
   height="125.31956"
   viewBox="0 0 204 125.31956"
   xmlns="http://www.w3.org/2000/svg"
   xmlnsSvg="http://www.w3.org/2000/svg">
  <defs
     id="defs14" />
  <g
     id="g16"
     transform="translate(0,0.05344198)">
    <path
       style="fill:#f7931d;stroke-width:0.168595"
       d="M 0,114.64463 V 104.02314 H 20.73719 41.47438 V 68.028099 32.033058 h 8.008265 8.008264 V 21.41157 10.790083 l 8.893389,-0.0063 c 10.044513,-0.0071 14.853074,-0.18015 16.185611,-0.5826 1.039676,-0.3140013 1.350112,-0.7043526 1.484552,-1.8667234 0.168003,-1.452557 0.223985,-1.5741478 0.877989,-1.9069652 1.611392,-0.8200259 6.490148,-1.0166771 25.4973,-1.0277368 26.18604,-0.015237 39.73408,-0.5754321 45.35207,-1.8752543 1.87473,-0.4337524 2.72548,-0.9135655 2.96942,-1.6747112 0.45162,-1.40920275 1.71324,-1.65575103 9.21157,-1.8001505 l 5.35289,-0.10308358 V 21.974954 44.003306 H 188.65785 204 v 11.197186 11.197185 l -1.22231,0.101695 c -0.67228,0.05593 -4.099,0.249138 -7.61495,0.429346 -3.79157,0.194336 -6.4358,0.397496 -6.49872,0.499313 -0.0583,0.09441 -0.23799,3.871771 -0.39921,8.394128 -0.16121,4.522358 -0.33979,9.113915 -0.39683,10.203461 l -0.1037,1.980992 h 4.74597 4.74595 v 18.629748 18.62976 H 98.628099 0 Z"
       id="path266" />
    <text
       xmlSpace="preserve"
       style="font-weight:300;font-size:29.3333px;font-family:Arial;-inkscape-font-specification:'Arial Bold';fill:#f7931d"
       x="111.52852"
       y="65.752068"
       id="text322"><tspan
         id="tspan320"
         x="111.52852"
         y="65.752068"
         style="font-size:29.3333px;text-align:center;text-anchor:middle;fill:#ffffff">Brooke</tspan><tspan
         x="111.52852"
         y="102.41869"
         id="tspan324"
         style="font-size:29.3333px;text-align:center;text-anchor:middle;fill:#ffffff">Building</tspan></text>
  </g>
</svg>
