<?xml version="1.0" encoding="UTF-8" standalone="no"?><svg xmlns="http://www.w3.org/2000/svg" viewBox="0 0 207 129"><path fill="#d1ab75" d="M121 121c0-8 0-8-3-8h-4l-1-24-2-25c-2 0-2-20 0-20l1-10-1-11h-4c-3 0-6 0-8 2l-3 2v100H75l-1-5 1-91 1-9H54l-24 1c-2 1-2 6-2 20v18H7V23H3c-3 0-3-1-3-11S0 1 3 1a921 921 0 0 1 91 0h5c3 2 11 2 12 0h8l17 1 20 1 5-1h6l5 2 6 3c2 3 3 4 14 4h12l-1 35c0 30 0 36 2 36 2 1 3 11 0 11l-1 17v18h-12l-1-53V23h-23v34h7v43h-4c-3 1-4 1-4 5s0 4 4 4h4v20h-54Z"/><text x="143" y="86" fill="#ffffff" font-family="Arial" font-size="27" font-weight="300" style="-inkscape-font-specification:'Arial Bold';text-align:center" text-anchor="middle"><tspan x="143" y="86">CSB</tspan></text></svg>