<svg xmlns="http://www.w3.org/2000/svg" xml:space="preserve" width="1024.065" height="1324.14" viewBox="0 0 270.951 350.345"><path d="M-10.229-18.863 1.218 165.541c5.26 16.062 24.281 19.563 37.829 27.292l212.79 103.07c15.656.316 5.655-18.947 6.608-27.858-3.508-31.484-5.95-63.135-10.539-94.475-11.359-12.094-30.623-15.38-44.996-24.08-18.833-8.873-37.672-17.736-56.502-26.613-7.707-9.91-4.57-23.17-6.52-34.8L129.54-40.67c-10.118-19.654-36.031-13.692-53.946-9.668-23.254 4.525-47.162 7.01-69.938 13.144C-3.301-33.89-5.747-25.85-10.23-18.863z" style="fill:#e0ca38;fill-opacity:1;stroke:#000;stroke-width:1.46285e-08;stroke-dasharray:none;stroke-opacity:1" transform="translate(10.229 54.438)"/><text xml:space="preserve" x="20.458" y="161.103" style="font-style:normal;font-variant:normal;font-weight:400;font-stretch:normal;font-size:35.2778px;font-family:Arial;-inkscape-font-specification:Arial;fill:#f9f9f9;fill-opacity:1;stroke:#000;stroke-width:7.9375e-09;stroke-dasharray:none;stroke-opacity:1" transform="translate(10.229 54.438)"><tspan x="20.458" y="161.103" style="font-style:normal;font-variant:normal;font-weight:400;font-stretch:normal;font-size:35.2778px;font-family:Arial;-inkscape-font-specification:Arial;fill:#f9f9f9;stroke-width:7.9375e-09">GMMTH</tspan></text></svg>