<?xml version="1.0" encoding="UTF-8" standalone="no"?>

<svg
   version="1.1"
   id="svg460"
   width="125.42112"
   height="106.66667"
   viewBox="0 0 125.42112 106.66667"
   xmlns="http://www.w3.org/2000/svg"
   xmlnsSvg="http://www.w3.org/2000/svg">
  <defs
     id="defs464" />
  <g
     id="g466">
    <path
       style="fill:#a85721;stroke-width:0.128669"
       d="m 100.10455,99.332534 v -7.334138 h -6.755129 -6.755127 v 5.983112 5.983112 H 43.297147 0 V 59.380783 14.796945 h 0.60634383 c 0.3334891,0 4.02468357,-0.08843 8.20265417,-0.196518 4.17797,-0.108083 10.651371,-0.272915 14.385334,-0.366291 3.733964,-0.09338 6.809194,-0.193122 6.833845,-0.221658 0.02465,-0.02853 0.199197,-2.831134 0.387878,-6.2279983 0.188682,-3.3968639 0.377135,-6.5379979 0.418782,-6.98029792 L 30.910559,0 h 3.201739 3.201737 v 12.030559 12.03056 h 10.679534 10.679534 v -5.339767 -5.339767 h 8.620829 8.620828 v 5.339767 5.339767 h 5.339767 5.339767 V 53.39767 82.734222 h 19.442796 c 15.50003,0 19.4308,0.03262 19.38361,0.160836 -0.0326,0.08846 -0.27275,0.805036 -0.53376,1.592391 -0.45935,1.38566 -0.4878,1.433662 -0.88742,1.497289 -0.22708,0.03615 -1.84592,0.230128 -3.59742,0.431054 l -3.18456,0.36532 v 9.94278 9.942778 h -8.5565 -8.55649 z"
       id="path545" />
    <text
       xmlSpace="preserve"
       style="font-weight:300;font-size:18px;font-family:Arial;-inkscape-font-specification:'Arial Bold';text-align:center;text-anchor:middle;fill:#a85721"
       x="43"
       y="56.09972"
       id="text601"><tspan
         id="tspan599"
         x="43"
         y="56.09972"
         style="font-size:18px;fill:#ffffff">Humphrey</tspan><tspan
         x="43"
         y="76.099716"
         id="tspan603"
         style="font-size:18px;fill:#ffffff">Booth</tspan></text>
  </g>
</svg>
