<?xml version="1.0" encoding="UTF-8" standalone="no"?><svg xmlns="http://www.w3.org/2000/svg" viewBox="0 0 204 189"><g fill="#007dbe"><path d="M91 189H81l-5-3-5-4 1-1 2-2v-22H56l-1-19-4-1-1 3v3H0v-31h16v9l1 5h3l27 1h2v9h1a82 82 0 0 1 5-1l1-27a67 67 0 0 0-8-1l-1-11V85l4-7 4-7V55H31V20h14v-7l4-5 4-6 25-1 26-1h78v52h-1a5456 5456 0 0 0-42 1h-2v36h53l6 1v21h8v12h-39v7l-3 7-3 6-4 4-4 3-4 2-3 1h-7v33h-1l-34-2-1 3v2H91z"/><text x="105" y="111" font-family="Arial" font-size="24" font-weight="300" style="-inkscape-font-specification:'Arial Bold';text-align:center" text-anchor="middle"><tspan x="105" y="111" fill="#ffffff">Irving</tspan><tspan x="105" y="141" fill="#ffffff">Building</tspan></text></g></svg>