<?xml version="1.0" encoding="UTF-8" standalone="no"?>

<svg
   version="1.1"
   id="svg5840"
   width="327.93607"
   height="219.24168"
   viewBox="0 0 327.93606 219.24168"
   xmlns="http://www.w3.org/2000/svg"
   xmlnsSvg="http://www.w3.org/2000/svg">
  <defs
     id="defs5844" />
  <g
     id="g5846"
     transform="translate(-1.2327558,-0.6767717)">
    <path
       style="fill:#ee1d23;stroke-width:0.272176"
       d="m 158.81682,218.35345 c -0.51822,-4.67933 -1.03365,-5.55078 -3.57004,-6.03596 -2.77014,-0.5299 -3.16607,-0.68504 -3.75296,-1.47051 -0.5323,-0.71241 -0.57845,-1.17387 -0.66403,-6.63987 l -0.092,-5.87426 -21.40996,0.18803 c -26.32102,0.23117 -47.955176,0.85836 -58.221797,1.6879 l -1.973278,0.15943 v 6.37292 6.37293 h -1.890319 c -2.051802,0 -15.141604,0.43896 -20.087919,0.67365 l -3.061984,0.14528 v -7.07779 -7.07778 l -9.049862,0.0157 c -4.977425,0.009 -10.452153,0.11654 -12.166063,0.23977 -2.90776,0.20907 -3.158089,0.27275 -3.742425,0.95209 -0.452611,0.52619 -0.626223,1.06712 -0.626223,1.95116 0,2.07778 -0.920314,3.32055 -3.007452,4.06119 -1.527865,0.54217 -6.7445078,1.02963 -8.6210309,0.80557 -2.1725566,-0.25941 -2.540481,-0.69886 -2.8081539,-3.35407 -0.2550809,-2.5303 -0.4715454,-3.29794 -1.8545191,-6.57665 -0.9262211,-2.19585 -0.9762574,-2.47267 -0.9839431,-5.44352 -0.012483,-4.82501 1.083983,-7.11248 4.2766863,-8.92214 0.7870051,-0.44608 1.8245081,-1.24622 2.3055615,-1.77809 1.1550678,-1.27707 2.0445653,-1.41162 9.3319692,-1.41162 7.120757,0 7.378338,0.0675 9.798347,2.56847 2.226825,2.30131 2.818745,2.46679 8.823363,2.46679 h 4.499668 l -0.116666,-0.74848 c -0.06417,-0.41167 -0.186361,-5.46394 -0.271542,-11.22728 -0.08518,-5.76333 -0.33528,-19.84845 -0.55577,-31.30027 -0.438321,-22.7654 -1.371143,-76.096965 -1.665033,-95.193669 l -0.18535,-12.043802 h 32.70426 32.704265 l -0.0118,-3.198072 c -0.0127,-3.416874 -0.27218,-5.360123 -0.78422,-5.872154 -0.17423,-0.17424 -1.44429,-0.390469 -2.822344,-0.480509 -3.009475,-0.196636 -3.630557,-0.372858 -4.055264,-1.150619 -0.384661,-0.704423 -0.683739,-10.526138 -0.32073,-10.532673 1.111876,-0.02002 13.812818,-0.824721 13.864938,-0.878453 0.0373,-0.03844 -0.12242,-2.430387 -0.3549,-5.3154388 -0.23248,-2.8850518 -0.34577,-5.3224716 -0.25175,-5.4164886 0.094,-0.094017 8.34839,-0.329334 18.34306,-0.5229266 44.57117,-0.86332525 49.98153,-0.93190136 50.16451,-0.63583411 0.0994,0.16084344 0.26152,3.19252091 0.36026,6.73706111 0.66863,24.003083 1.80358,72.105426 1.80474,76.489947 l 8.2e-4,2.817779 4.47115,-0.09602 c 4.02964,-0.08653 4.54703,-0.15243 5.2394,-0.667287 0.42253,-0.314198 0.80576,-0.883242 0.85163,-1.264542 0.19632,-1.632064 2.03026,-2.10668 8.14994,-2.109168 3.51591,-0.0014 3.87779,0.04295 3.87076,0.474733 -0.004,0.26197 -0.18449,2.742176 -0.40051,5.51157 -0.21602,2.769394 -0.39625,5.446058 -0.40051,5.948142 l -0.008,0.912879 6.46419,-0.117022 c 3.90449,-0.07068 6.75402,-0.2384 7.19612,-0.423542 1.00553,-0.421095 1.27982,-1.050658 1.59547,-3.662004 0.33806,-2.796598 0.6453,-3.588101 1.55343,-4.001874 1.00998,-0.460174 4.03213,-0.760447 9.94016,-0.987627 3.17361,-0.122036 5.18054,-0.308501 5.29386,-0.491858 0.10038,-0.162422 0.3525,-4.094828 0.56028,-8.738681 0.20777,-4.643856 0.41693,-8.483112 0.46479,-8.531688 0.13465,-0.136643 38.10112,-0.823388 56.34162,-1.01912 18.46381,-0.198126 29.11453,0.09143 30.22929,0.821833 1.74944,1.146287 5.22181,6.755392 6.82618,11.026728 1.53121,4.076513 2.09499,7.425634 2.10928,12.52995 0.0139,4.960296 -0.37473,7.444855 -1.75962,11.24999 -1.37802,3.7863 -2.52432,5.50752 -5.93986,8.91907 -2.75916,2.75592 -3.45615,3.29776 -5.47385,4.25537 -5.09653,2.41883 -8.85006,2.79788 -33.41519,3.37445 l -14.50038,0.34034 0.17509,5.32295 c 0.0963,2.92763 0.43625,14.83457 0.75546,26.4599 l 0.58029,21.13695 -3.94655,0.17335 c -12.69484,0.55765 -14.13576,0.83041 -14.67662,2.77819 -0.15953,0.5745 -0.29073,1.26445 -0.29156,1.53322 -0.002,0.72558 -1.14943,1.73979 -2.3483,2.07613 -0.58048,0.16285 -2.84698,0.43643 -5.03666,0.60796 l -3.98124,0.31186 -0.16244,1.65989 c -0.0893,0.91293 -0.2394,4.17071 -0.33347,7.2395 -0.20748,6.76873 -0.0649,7.43925 1.77969,8.36942 0.75469,0.38057 1.70746,0.6124 2.51685,0.6124 1.10619,0 1.46129,-0.14353 2.35686,-0.95261 0.95575,-0.86347 1.20418,-0.95206 2.6545,-0.94665 1.76393,0.007 3.44814,0.63649 4.32183,1.61636 0.4664,0.52308 0.55737,1.0743 0.6352,3.84891 l 0.0908,3.23839 h -12.67899 -12.67899 v 7.34876 7.34876 H 193.4006 158.98988 Z"
       id="path5921" />
    <text
       xmlSpace="preserve"
       style="font-weight:300;font-size:34px;font-family:Arial;-inkscape-font-specification:'Arial Bold';text-align:center;text-anchor:middle;fill:#ffffff"
       x="150.19463"
       y="126.22377"
       id="text5981"><tspan
         id="tspan5979"
         x="150.19463"
         y="126.22377"
         style="font-size:34px">Turnberg</tspan><tspan
         x="150.19463"
         y="172.8904"
         id="tspan5983"
         style="font-size:34px">Building</tspan></text>
  </g>
</svg>
